<svg width="141" height="171" viewBox="0 0 141 171" fill="none" xmlns="http://www.w3.org/2000/svg">
<path d="M25.179 29.241V30H15.972V29.241C17.49 29.175 18.744 28.746 19.074 28.086V20.133H7.062V28.086C7.359 28.746 8.646 29.175 10.164 29.241V30H0.957V29.241C2.475 29.175 3.762 28.746 4.059 28.086V10.959C3.762 10.299 2.475 9.837 0.957 9.771V9.045H10.164V9.771C8.646 9.837 7.359 10.299 7.062 10.959V18.483H19.074V10.959C18.744 10.299 17.49 9.837 15.972 9.771V9.045H25.179V9.771C23.661 9.837 22.407 10.299 22.077 10.959V28.086C22.407 28.746 23.661 29.175 25.179 29.241ZM38.52 26.568L39.015 27.327C37.002 29.175 35.484 30.264 32.778 30.264C29.379 30.264 26.772 27.525 26.772 23.532C26.772 18.681 29.676 15.414 33.669 15.414C37.002 15.414 38.553 17.163 38.553 20.298V20.859L29.544 20.793C29.511 21.09 29.478 21.816 29.478 22.575C29.478 26.04 31.788 28.35 34.527 28.35C36.408 28.35 37.101 27.789 38.52 26.568ZM29.676 19.902L35.88 19.836C35.88 18.054 34.56 16.404 33.075 16.404C31.326 16.404 30.039 17.724 29.676 19.902ZM54.0313 27.591V28.449C53.2393 29.274 51.6223 30.297 50.5663 30.297C48.8833 30.297 48.1903 28.944 48.1573 28.185C47.0023 29.373 45.1873 30.297 43.9663 30.297C42.3493 30.297 40.6663 29.208 40.6663 27.294C40.6663 26.403 40.7983 25.281 41.3263 24.522L48.1573 22.113L48.1903 19.803C48.2233 18.285 46.9693 16.635 45.4513 16.635C44.5273 16.635 43.7353 17.79 43.6693 19.407L40.9963 19.902V19.539C41.9203 16.767 45.4513 15.381 46.9033 15.381C49.9063 15.381 50.8963 16.965 50.8633 19.506L50.7313 26.634C50.6983 27.987 51.4243 28.416 52.1173 28.416C52.8433 28.416 53.2723 28.119 54.0313 27.591ZM48.1243 27.558L48.1573 22.905C47.2993 23.301 44.7913 24.258 43.8343 24.786C43.7023 25.314 43.6033 26.04 43.6033 26.7C43.6033 27.69 44.1643 28.614 45.1543 28.614C46.4743 28.614 47.1013 28.284 48.1243 27.558ZM71.3452 27.987V28.812L66.3292 30.495H65.9002L65.6032 28.086C64.1182 29.175 62.1382 30.297 60.5872 30.297C57.6172 30.297 54.7132 28.119 54.7132 23.466C54.7132 18.945 57.7822 15.381 63.1612 15.381C64.0852 15.381 65.0422 15.678 65.6692 15.843L65.5702 10.596C65.5372 9.243 65.0752 8.946 62.7982 8.748V8.121L68.2102 6.636H68.7382V7.098L68.1112 8.22L68.1772 27.096C68.1772 27.822 68.5732 28.251 68.6722 28.416L71.3452 27.987ZM65.6032 27.459L65.5702 19.341C64.9762 17.493 62.9302 16.536 61.6102 16.536C59.1022 16.536 57.5512 19.407 57.5512 22.476C57.5512 25.71 59.3992 28.449 62.6002 28.449C63.4252 28.449 64.6792 27.954 65.6032 27.459ZM77.3917 9.54C77.3917 10.332 76.6657 11.19 75.6427 11.19C74.5867 11.19 73.8607 10.332 73.8607 9.54C73.8607 8.715 74.5867 7.824 75.6427 7.824C76.6657 7.824 77.3917 8.715 77.3917 9.54ZM79.2397 29.208V30H72.2437V29.208C73.8607 29.076 74.1247 28.779 74.4547 28.218L74.4877 19.242C74.4877 18.483 74.0587 17.889 72.3757 17.46V16.866L76.6327 15.315H77.0287V28.218C77.3917 28.878 77.5897 29.043 79.2397 29.208ZM97.5776 29.109V30H90.0866V29.208C91.6706 29.076 91.8686 28.779 92.0996 28.218V20.529C92.0996 18.747 90.8456 17.229 89.0306 17.229C88.1396 17.229 86.6546 17.79 85.6976 18.318V28.251C86.0606 28.911 86.2256 29.076 87.8756 29.241V30H80.9786V29.241C82.5956 29.142 82.8266 28.812 83.1236 28.251V19.341C83.1236 18.681 82.5956 17.922 81.0446 17.526V16.899L85.3346 15.348H85.6976V17.691C87.1826 16.602 89.6906 15.381 90.8786 15.381C93.8816 15.381 94.7726 17.196 94.7726 19.869V28.449C95.4326 28.944 96.0926 28.977 97.5776 29.109ZM114.212 16.503V18.087L110.054 17.988C110.384 18.483 110.78 19.407 110.78 20.166C110.78 23.466 107.876 25.38 104.774 25.38C103.982 25.38 103.586 25.281 103.157 25.149C102.596 25.644 102.2 26.139 101.969 26.733C102.035 27.723 103.388 28.317 104.939 28.35C105.896 28.383 107.711 28.383 109.559 28.548C111.968 28.779 113.42 30.132 113.42 32.211C113.42 33.762 112.694 34.983 111.143 36.237C109.229 37.821 107.051 38.514 105.071 38.514C101.507 38.514 98.9987 37.062 98.9987 34.554C98.9987 32.706 101.342 31.419 102.959 30.66V30.627C101.903 30.363 99.5597 29.505 99.5597 27.327V26.964C100.385 26.337 101.309 25.71 102.53 24.951C100.748 24.192 99.3287 22.905 99.3287 20.529C99.3287 17.394 102.101 15.381 105.335 15.381C107.018 15.381 108.239 15.81 109.46 16.503H114.212ZM108.041 20.661C108.041 18.285 106.985 16.338 104.906 16.338C103.322 16.338 102.035 17.724 102.035 20.1C102.035 22.641 103.586 24.423 105.203 24.423C106.853 24.423 108.041 22.872 108.041 20.661ZM111.407 33.498C111.407 32.046 110.549 31.221 109.361 31.023C107.777 30.792 106.655 30.759 104.081 30.726C103.223 31.155 101.771 32.046 101.606 34.026C101.87 35.808 103.817 36.798 106.622 36.798C108.503 36.798 109.922 36.204 110.681 35.313C111.077 34.851 111.407 34.125 111.407 33.498ZM136.732 29.241V30H126.469V29.241C127.987 29.175 129.835 28.713 130.165 28.086V13.005C130.165 11.553 129.043 11.52 126.535 11.52V10.794L133.135 8.583H133.696V9.045L133.036 10.167V28.086C133.366 28.713 135.214 29.175 136.732 29.241Z" fill="currentColor"/>
<path d="M22.127 68.333V69H14.036V68.333C15.37 68.275 16.472 67.898 16.762 67.318V60.329H6.206V67.318C6.467 67.898 7.598 68.275 8.932 68.333V69H0.841V68.333C2.175 68.275 3.306 67.898 3.567 67.318V52.267C3.306 51.687 2.175 51.281 0.841 51.223V50.585H8.932V51.223C7.598 51.281 6.467 51.687 6.206 52.267V58.879H16.762V52.267C16.472 51.687 15.37 51.281 14.036 51.223V50.585H22.127V51.223C20.793 51.281 19.691 51.687 19.401 52.267V67.318C19.691 67.898 20.793 68.275 22.127 68.333ZM33.8509 65.984L34.2859 66.651C32.5169 68.275 31.1829 69.232 28.8049 69.232C25.8179 69.232 23.5269 66.825 23.5269 63.316C23.5269 59.053 26.0789 56.182 29.5879 56.182C32.5169 56.182 33.8799 57.719 33.8799 60.474V60.967L25.9629 60.909C25.9339 61.17 25.9049 61.808 25.9049 62.475C25.9049 65.52 27.9349 67.55 30.3419 67.55C31.9949 67.55 32.6039 67.057 33.8509 65.984ZM26.0789 60.126L31.5309 60.068C31.5309 58.502 30.3709 57.052 29.0659 57.052C27.5289 57.052 26.3979 58.212 26.0789 60.126ZM47.4821 66.883V67.637C46.7861 68.362 45.3651 69.261 44.4371 69.261C42.9581 69.261 42.3491 68.072 42.3201 67.405C41.3051 68.449 39.7101 69.261 38.6371 69.261C37.2161 69.261 35.7371 68.304 35.7371 66.622C35.7371 65.839 35.8531 64.853 36.3171 64.186L42.3201 62.069L42.3491 60.039C42.3781 58.705 41.2761 57.255 39.9421 57.255C39.1301 57.255 38.4341 58.27 38.3761 59.691L36.0271 60.126V59.807C36.8391 57.371 39.9421 56.153 41.2181 56.153C43.8571 56.153 44.7271 57.545 44.6981 59.778L44.5821 66.042C44.5531 67.231 45.1911 67.608 45.8001 67.608C46.4381 67.608 46.8151 67.347 47.4821 66.883ZM42.2911 66.854L42.3201 62.765C41.5661 63.113 39.3621 63.954 38.5211 64.418C38.4051 64.882 38.3181 65.52 38.3181 66.1C38.3181 66.97 38.8111 67.782 39.6811 67.782C40.8411 67.782 41.3921 67.492 42.2911 66.854ZM62.6973 67.231V67.956L58.2893 69.435H57.9123L57.6513 67.318C56.3463 68.275 54.6063 69.261 53.2433 69.261C50.6333 69.261 48.0813 67.347 48.0813 63.258C48.0813 59.285 50.7783 56.153 55.5053 56.153C56.3173 56.153 57.1583 56.414 57.7093 56.559L57.6223 51.948C57.5933 50.759 57.1873 50.498 55.1863 50.324V49.773L59.9423 48.468H60.4063V48.874L59.8553 49.86L59.9133 66.448C59.9133 67.086 60.2613 67.463 60.3483 67.608L62.6973 67.231ZM57.6513 66.767L57.6223 59.633C57.1003 58.009 55.3023 57.168 54.1423 57.168C51.9383 57.168 50.5753 59.691 50.5753 62.388C50.5753 65.23 52.1993 67.637 55.0123 67.637C55.7373 67.637 56.8393 67.202 57.6513 66.767ZM68.0109 51.02C68.0109 51.716 67.3729 52.47 66.4739 52.47C65.5459 52.47 64.9079 51.716 64.9079 51.02C64.9079 50.295 65.5459 49.512 66.4739 49.512C67.3729 49.512 68.0109 50.295 68.0109 51.02ZM69.6349 68.304V69H63.4869V68.304C64.9079 68.188 65.1399 67.927 65.4299 67.434L65.4589 59.546C65.4589 58.879 65.0819 58.357 63.6029 57.98V57.458L67.3439 56.095H67.6919V67.434C68.0109 68.014 68.1849 68.159 69.6349 68.304ZM85.7501 68.217V69H79.1671V68.304C80.5591 68.188 80.7331 67.927 80.9361 67.434V60.677C80.9361 59.111 79.8341 57.777 78.2391 57.777C77.4561 57.777 76.1511 58.27 75.3101 58.734V67.463C75.6291 68.043 75.7741 68.188 77.2241 68.333V69H71.1631V68.333C72.5841 68.246 72.7871 67.956 73.0481 67.463V59.633C73.0481 59.053 72.5841 58.386 71.2211 58.038V57.487L74.9911 56.124H75.3101V58.183C76.6151 57.226 78.8191 56.153 79.8631 56.153C82.5021 56.153 83.2851 57.748 83.2851 60.097V67.637C83.8651 68.072 84.4451 68.101 85.7501 68.217ZM100.368 57.139V58.531L96.7139 58.444C97.0039 58.879 97.3519 59.691 97.3519 60.358C97.3519 63.258 94.7999 64.94 92.0739 64.94C91.3779 64.94 91.0299 64.853 90.6529 64.737C90.1599 65.172 89.8119 65.607 89.6089 66.129C89.6669 66.999 90.8559 67.521 92.2189 67.55C93.0599 67.579 94.6549 67.579 96.2789 67.724C98.3959 67.927 99.6719 69.116 99.6719 70.943C99.6719 72.306 99.0339 73.379 97.6709 74.481C95.9889 75.873 94.0749 76.482 92.3349 76.482C89.2029 76.482 86.9989 75.206 86.9989 73.002C86.9989 71.378 89.0579 70.247 90.4789 69.58V69.551C89.5509 69.319 87.4919 68.565 87.4919 66.651V66.332C88.2169 65.781 89.0289 65.23 90.1019 64.563C88.5359 63.896 87.2889 62.765 87.2889 60.677C87.2889 57.922 89.7249 56.153 92.5669 56.153C94.0459 56.153 95.1189 56.53 96.1919 57.139H100.368ZM94.9449 60.793C94.9449 58.705 94.0169 56.994 92.1899 56.994C90.7979 56.994 89.6669 58.212 89.6669 60.3C89.6669 62.533 91.0299 64.099 92.4509 64.099C93.9009 64.099 94.9449 62.736 94.9449 60.793ZM97.9029 72.074C97.9029 70.798 97.1489 70.073 96.1049 69.899C94.7129 69.696 93.7269 69.667 91.4649 69.638C90.7109 70.015 89.4349 70.798 89.2899 72.538C89.5219 74.104 91.2329 74.974 93.6979 74.974C95.3509 74.974 96.5979 74.452 97.2649 73.669C97.6129 73.263 97.9029 72.625 97.9029 72.074ZM122.073 63.925V69H108.559L108.356 68.507C115.635 63.229 117.926 59.72 117.926 56.182C117.926 53.775 116.331 52.441 114.127 52.441C111.459 52.441 110.009 54.355 109.342 55.979L108.733 55.776C109.284 53.195 111.111 50.179 115.055 50.179C118.274 50.179 120.681 52.296 120.681 55.428C120.681 60.532 116.128 63.316 111.981 66.825H120.159C120.768 66.535 121.435 65.23 121.493 63.925H122.073Z" fill="currentColor"/>
<path d="M20.601 105.379V106H13.068V105.379C14.31 105.325 15.336 104.974 15.606 104.434V97.927H5.778V104.434C6.021 104.974 7.074 105.325 8.316 105.379V106H0.783V105.379C2.025 105.325 3.078 104.974 3.321 104.434V90.421C3.078 89.881 2.025 89.503 0.783 89.449V88.855H8.316V89.449C7.074 89.503 6.021 89.881 5.778 90.421V96.577H15.606V90.421C15.336 89.881 14.31 89.503 13.068 89.449V88.855H20.601V89.449C19.359 89.503 18.333 89.881 18.063 90.421V104.434C18.333 104.974 19.359 105.325 20.601 105.379ZM31.5164 103.192L31.9214 103.813C30.2744 105.325 29.0324 106.216 26.8184 106.216C24.0374 106.216 21.9044 103.975 21.9044 100.708C21.9044 96.739 24.2804 94.066 27.5474 94.066C30.2744 94.066 31.5434 95.497 31.5434 98.062V98.521L24.1724 98.467C24.1454 98.71 24.1184 99.304 24.1184 99.925C24.1184 102.76 26.0084 104.65 28.2494 104.65C29.7884 104.65 30.3554 104.191 31.5164 103.192ZM24.2804 97.738L29.3564 97.684C29.3564 96.226 28.2764 94.876 27.0614 94.876C25.6304 94.876 24.5774 95.956 24.2804 97.738ZM44.2074 104.029V104.731C43.5594 105.406 42.2364 106.243 41.3724 106.243C39.9954 106.243 39.4284 105.136 39.4014 104.515C38.4564 105.487 36.9714 106.243 35.9724 106.243C34.6494 106.243 33.2724 105.352 33.2724 103.786C33.2724 103.057 33.3804 102.139 33.8124 101.518L39.4014 99.547L39.4284 97.657C39.4554 96.415 38.4294 95.065 37.1874 95.065C36.4314 95.065 35.7834 96.01 35.7294 97.333L33.5424 97.738V97.441C34.2984 95.173 37.1874 94.039 38.3754 94.039C40.8324 94.039 41.6424 95.335 41.6154 97.414L41.5074 103.246C41.4804 104.353 42.0744 104.704 42.6414 104.704C43.2354 104.704 43.5864 104.461 44.2074 104.029ZM39.3744 104.002L39.4014 100.195C38.6994 100.519 36.6474 101.302 35.8644 101.734C35.7564 102.166 35.6754 102.76 35.6754 103.3C35.6754 104.11 36.1344 104.866 36.9444 104.866C38.0244 104.866 38.5374 104.596 39.3744 104.002ZM58.3734 104.353V105.028L54.2694 106.405H53.9184L53.6754 104.434C52.4604 105.325 50.8404 106.243 49.5714 106.243C47.1414 106.243 44.7654 104.461 44.7654 100.654C44.7654 96.955 47.2764 94.039 51.6774 94.039C52.4334 94.039 53.2164 94.282 53.7294 94.417L53.6484 90.124C53.6214 89.017 53.2434 88.774 51.3804 88.612V88.099L55.8084 86.884H56.2404V87.262L55.7274 88.18L55.7814 103.624C55.7814 104.218 56.1054 104.569 56.1864 104.704L58.3734 104.353ZM53.6754 103.921L53.6484 97.279C53.1624 95.767 51.4884 94.984 50.4084 94.984C48.3564 94.984 47.0874 97.333 47.0874 99.844C47.0874 102.49 48.5994 104.731 51.2184 104.731C51.8934 104.731 52.9194 104.326 53.6754 103.921ZM63.3205 89.26C63.3205 89.908 62.7265 90.61 61.8895 90.61C61.0255 90.61 60.4315 89.908 60.4315 89.26C60.4315 88.585 61.0255 87.856 61.8895 87.856C62.7265 87.856 63.3205 88.585 63.3205 89.26ZM64.8325 105.352V106H59.1085V105.352C60.4315 105.244 60.6475 105.001 60.9175 104.542L60.9445 97.198C60.9445 96.577 60.5935 96.091 59.2165 95.74V95.254L62.6995 93.985H63.0235V104.542C63.3205 105.082 63.4825 105.217 64.8325 105.352ZM79.8363 105.271V106H73.7073V105.352C75.0033 105.244 75.1653 105.001 75.3543 104.542V98.251C75.3543 96.793 74.3283 95.551 72.8433 95.551C72.1143 95.551 70.8993 96.01 70.1163 96.442V104.569C70.4133 105.109 70.5483 105.244 71.8983 105.379V106H66.2553V105.379C67.5783 105.298 67.7673 105.028 68.0103 104.569V97.279C68.0103 96.739 67.5783 96.118 66.3093 95.794V95.281L69.8193 94.012H70.1163V95.929C71.3313 95.038 73.3833 94.039 74.3553 94.039C76.8123 94.039 77.5413 95.524 77.5413 97.711V104.731C78.0813 105.136 78.6213 105.163 79.8363 105.271ZM93.4459 94.957V96.253L90.0439 96.172C90.3139 96.577 90.6379 97.333 90.6379 97.954C90.6379 100.654 88.2619 102.22 85.7239 102.22C85.0759 102.22 84.7519 102.139 84.4009 102.031C83.9419 102.436 83.6179 102.841 83.4289 103.327C83.4829 104.137 84.5899 104.623 85.8589 104.65C86.6419 104.677 88.1269 104.677 89.6389 104.812C91.6099 105.001 92.7979 106.108 92.7979 107.809C92.7979 109.078 92.2039 110.077 90.9349 111.103C89.3689 112.399 87.5869 112.966 85.9669 112.966C83.0509 112.966 80.9989 111.778 80.9989 109.726C80.9989 108.214 82.9159 107.161 84.2389 106.54V106.513C83.3749 106.297 81.4579 105.595 81.4579 103.813V103.516C82.1329 103.003 82.8889 102.49 83.8879 101.869C82.4299 101.248 81.2689 100.195 81.2689 98.251C81.2689 95.686 83.5369 94.039 86.1829 94.039C87.5599 94.039 88.5589 94.39 89.5579 94.957H93.4459ZM88.3969 98.359C88.3969 96.415 87.5329 94.822 85.8319 94.822C84.5359 94.822 83.4829 95.956 83.4829 97.9C83.4829 99.979 84.7519 101.437 86.0749 101.437C87.4249 101.437 88.3969 100.168 88.3969 98.359ZM91.1509 108.862C91.1509 107.674 90.4489 106.999 89.4769 106.837C88.1809 106.648 87.2629 106.621 85.1569 106.594C84.4549 106.945 83.2669 107.674 83.1319 109.294C83.3479 110.752 84.9409 111.562 87.2359 111.562C88.7749 111.562 89.9359 111.076 90.5569 110.347C90.8809 109.969 91.1509 109.375 91.1509 108.862ZM113.006 100.6C113.006 103.867 109.874 106.378 106.121 106.378C104.069 106.378 102.503 105.811 101.531 105.163L101.099 101.302H101.639C101.936 102.49 102.638 103.813 103.556 104.488C104.312 105.055 105.257 105.379 106.445 105.379C108.551 105.379 110.36 103.786 110.36 101.194C110.36 98.575 108.119 97.738 106.229 97.738C105.5 97.738 104.852 97.981 104.258 98.197L104.015 97.387C105.608 96.901 106.283 96.604 106.661 96.415C108.632 95.497 109.442 94.444 109.442 92.878C109.442 91.528 108.524 90.205 106.418 90.205C104.096 90.205 102.908 92.176 102.422 92.878L101.936 92.635C102.26 91.447 103.799 88.477 107.39 88.477C109.901 88.477 111.98 89.881 111.98 92.095C111.98 93.931 110.792 95.173 108.605 96.037C110.144 96.307 113.006 97.522 113.006 100.6Z" fill="currentColor"/>
<path d="M14.64 139H11.42V133.38H4.82V139H1.58V125H4.82V130.42H11.42V125H14.64V139ZM26.6909 135.86L25.8509 138.42C25.2376 138.713 24.6576 138.92 24.1109 139.04C23.5776 139.16 22.9843 139.22 22.3309 139.22C20.6776 139.22 19.3509 138.733 18.3509 137.76C17.3643 136.787 16.8709 135.487 16.8709 133.86C16.8709 132.353 17.3576 131.087 18.3309 130.06C19.3176 129.02 20.5576 128.5 22.0509 128.5C23.5443 128.5 24.7243 128.993 25.5909 129.98C26.4709 130.953 26.9109 132.24 26.9109 133.84C26.9109 133.92 26.9043 134.04 26.8909 134.2C26.8776 134.36 26.8643 134.527 26.8509 134.7H19.7909C19.9509 135.38 20.2976 135.907 20.8309 136.28C21.3643 136.653 22.0443 136.84 22.8709 136.84C23.4709 136.84 24.0776 136.76 24.6909 136.6C25.3176 136.427 25.9643 136.167 26.6309 135.82L26.6909 135.86ZM21.9909 130.68C21.3909 130.68 20.8909 130.893 20.4909 131.32C20.0909 131.733 19.8509 132.287 19.7709 132.98H24.0909C24.0243 132.273 23.8043 131.713 23.4309 131.3C23.0576 130.887 22.5776 130.68 21.9909 130.68ZM37.9977 138.76L35.0777 139.14V137.6C34.411 138.133 33.771 138.533 33.1577 138.8C32.5577 139.053 31.9577 139.18 31.3577 139.18C30.4643 139.18 29.7443 138.933 29.1977 138.44C28.651 137.933 28.3777 137.26 28.3777 136.42C28.3777 135.3 28.9243 134.467 30.0177 133.92C31.111 133.36 32.771 133.06 34.9977 133.02C34.9577 132.367 34.7643 131.873 34.4177 131.54C34.071 131.207 33.571 131.04 32.9177 131.04C32.3843 131.04 31.8243 131.153 31.2377 131.38C30.651 131.593 30.051 131.913 29.4377 132.34L29.3777 132.3L29.8377 129.56C30.3977 129.227 30.9843 128.98 31.5977 128.82C32.211 128.66 32.8643 128.58 33.5577 128.58C35.011 128.58 36.111 128.967 36.8577 129.74C37.6177 130.513 37.9977 131.64 37.9977 133.12V138.76ZM31.1377 136.12C31.1377 136.427 31.2443 136.667 31.4577 136.84C31.671 137.013 31.971 137.1 32.3577 137.1C32.7043 137.1 33.091 137.033 33.5177 136.9C33.9577 136.753 34.451 136.54 34.9977 136.26V134.44C33.691 134.533 32.7177 134.713 32.0777 134.98C31.451 135.247 31.1377 135.627 31.1377 136.12ZM50.4811 139H47.5211V137.56C47.0144 138.133 46.4944 138.553 45.9611 138.82C45.4278 139.073 44.8411 139.2 44.2011 139.2C42.9611 139.2 41.9144 138.72 41.0611 137.76C40.2211 136.787 39.8011 135.573 39.8011 134.12C39.8011 132.547 40.2744 131.24 41.2211 130.2C42.1811 129.147 43.3544 128.62 44.7411 128.62C45.2211 128.62 45.6878 128.707 46.1411 128.88C46.5944 129.04 47.0344 129.287 47.4611 129.62V124.64L50.4811 123.84V139ZM45.4211 131.14C44.6344 131.14 43.9878 131.4 43.4811 131.92C42.9878 132.44 42.7411 133.113 42.7411 133.94C42.7411 134.753 42.9744 135.413 43.4411 135.92C43.9078 136.413 44.5078 136.66 45.2411 136.66C45.6011 136.66 45.9544 136.6 46.3011 136.48C46.6611 136.36 47.0478 136.16 47.4611 135.88V131.7C47.1144 131.5 46.7744 131.36 46.4411 131.28C46.1211 131.187 45.7811 131.14 45.4211 131.14ZM54.7564 123.66C55.2764 123.66 55.7097 123.827 56.0564 124.16C56.4164 124.493 56.5964 124.907 56.5964 125.4C56.5964 125.893 56.4164 126.307 56.0564 126.64C55.7097 126.973 55.2764 127.14 54.7564 127.14C54.2364 127.14 53.7964 126.973 53.4364 126.64C53.0897 126.307 52.9164 125.893 52.9164 125.4C52.9164 124.907 53.0897 124.493 53.4364 124.16C53.7964 123.827 54.2364 123.66 54.7564 123.66ZM56.2564 139H53.2364V128.78H56.2564V139ZM64.2553 131.2C63.882 131.2 63.5286 131.273 63.1953 131.42C62.8753 131.567 62.502 131.82 62.0753 132.18V139H59.0353V129.02L61.9953 128.64V130.6C62.542 129.88 63.0953 129.36 63.6553 129.04C64.2286 128.707 64.862 128.54 65.5553 128.54C66.6086 128.54 67.442 128.893 68.0553 129.6C68.682 130.307 68.9953 131.267 68.9953 132.48V139H65.9753V133.1C65.9753 132.5 65.822 132.033 65.5153 131.7C65.222 131.367 64.802 131.2 64.2553 131.2ZM81.5358 128.74V137.52C81.5358 139.2 81.0291 140.513 80.0158 141.46C79.0024 142.42 77.6091 142.9 75.8358 142.9C75.1158 142.9 74.4291 142.827 73.7758 142.68C73.1224 142.533 72.4558 142.3 71.7758 141.98L71.2958 139.2L71.3358 139.18C72.1758 139.62 72.9224 139.933 73.5758 140.12C74.2291 140.307 74.9024 140.4 75.5958 140.4C76.5158 140.4 77.2358 140.167 77.7558 139.7C78.2758 139.233 78.5358 138.573 78.5358 137.72V137.08C78.0291 137.56 77.5091 137.913 76.9758 138.14C76.4424 138.353 75.8624 138.46 75.2358 138.46C73.9691 138.46 72.9224 138.027 72.0958 137.16C71.2691 136.28 70.8558 135.16 70.8558 133.8C70.8558 132.267 71.3824 131.02 72.4358 130.06C73.5024 129.1 74.8424 128.62 76.4558 128.62C76.9358 128.62 77.4091 128.667 77.8758 128.76C78.3558 128.84 78.8558 128.973 79.3758 129.16L81.2958 128.74H81.5358ZM76.6158 131.08C75.8024 131.08 75.1291 131.327 74.5958 131.82C74.0624 132.313 73.7958 132.947 73.7958 133.72C73.7958 134.453 74.0224 135.047 74.4758 135.5C74.9291 135.94 75.5158 136.16 76.2358 136.16C76.6224 136.16 76.9958 136.1 77.3558 135.98C77.7291 135.86 78.1224 135.667 78.5358 135.4V131.42C78.1891 131.3 77.8624 131.213 77.5558 131.16C77.2491 131.107 76.9358 131.08 76.6158 131.08ZM99.6261 133.82V136.16H97.4661V139H94.5461V136.16H87.6461L87.5461 135.38L93.9861 124.94L94.0861 124.98V124.94H97.4661V133.82H99.6261ZM94.5861 128L91.1061 133.82H94.5861V128Z" fill="currentColor"/>
<path d="M12.444 167H9.707V162.223H4.097V167H1.343V155.1H4.097V159.707H9.707V155.1H12.444V167ZM22.6873 164.331L21.9733 166.507C21.452 166.756 20.959 166.932 20.4943 167.034C20.041 167.136 19.5366 167.187 18.9813 167.187C17.576 167.187 16.4483 166.773 15.5983 165.946C14.7596 165.119 14.3403 164.014 14.3403 162.631C14.3403 161.35 14.754 160.274 15.5813 159.401C16.42 158.517 17.474 158.075 18.7433 158.075C20.0126 158.075 21.0156 158.494 21.7523 159.333C22.5003 160.16 22.8743 161.254 22.8743 162.614C22.8743 162.682 22.8686 162.784 22.8573 162.92C22.846 163.056 22.8346 163.198 22.8233 163.345H16.8223C16.9583 163.923 17.253 164.371 17.7063 164.688C18.1596 165.005 18.7376 165.164 19.4403 165.164C19.9503 165.164 20.466 165.096 20.9873 164.96C21.52 164.813 22.0696 164.592 22.6363 164.297L22.6873 164.331ZM18.6923 159.928C18.1823 159.928 17.7573 160.109 17.4173 160.472C17.0773 160.823 16.8733 161.294 16.8053 161.883H20.4773C20.4206 161.282 20.2336 160.806 19.9163 160.455C19.599 160.104 19.191 159.928 18.6923 159.928ZM32.298 166.796L29.816 167.119V165.81C29.2493 166.263 28.7053 166.603 28.184 166.83C27.674 167.045 27.164 167.153 26.654 167.153C25.8947 167.153 25.2827 166.943 24.818 166.524C24.3533 166.093 24.121 165.521 24.121 164.807C24.121 163.855 24.5857 163.147 25.515 162.682C26.4443 162.206 27.8553 161.951 29.748 161.917C29.714 161.362 29.5497 160.942 29.255 160.659C28.9603 160.376 28.5353 160.234 27.98 160.234C27.5267 160.234 27.0507 160.33 26.552 160.523C26.0533 160.704 25.5433 160.976 25.022 161.339L24.971 161.305L25.362 158.976C25.838 158.693 26.3367 158.483 26.858 158.347C27.3793 158.211 27.9347 158.143 28.524 158.143C29.7593 158.143 30.6943 158.472 31.329 159.129C31.975 159.786 32.298 160.744 32.298 162.002V166.796ZM26.467 164.552C26.467 164.813 26.5577 165.017 26.739 165.164C26.9203 165.311 27.1753 165.385 27.504 165.385C27.7987 165.385 28.1273 165.328 28.49 165.215C28.864 165.09 29.2833 164.909 29.748 164.671V163.124C28.6373 163.203 27.81 163.356 27.266 163.583C26.7333 163.81 26.467 164.133 26.467 164.552ZM42.9089 167H40.3929V165.776C39.9623 166.263 39.5203 166.62 39.0669 166.847C38.6136 167.062 38.1149 167.17 37.5709 167.17C36.5169 167.17 35.6273 166.762 34.9019 165.946C34.1879 165.119 33.8309 164.087 33.8309 162.852C33.8309 161.515 34.2333 160.404 35.0379 159.52C35.8539 158.625 36.8513 158.177 38.0299 158.177C38.4379 158.177 38.8346 158.251 39.2199 158.398C39.6053 158.534 39.9793 158.744 40.3419 159.027V154.794L42.9089 154.114V167ZM38.6079 160.319C37.9393 160.319 37.3896 160.54 36.9589 160.982C36.5396 161.424 36.3299 161.996 36.3299 162.699C36.3299 163.39 36.5283 163.951 36.9249 164.382C37.3216 164.801 37.8316 165.011 38.4549 165.011C38.7609 165.011 39.0613 164.96 39.3559 164.858C39.6619 164.756 39.9906 164.586 40.3419 164.348V160.795C40.0473 160.625 39.7583 160.506 39.4749 160.438C39.2029 160.359 38.9139 160.319 38.6079 160.319ZM46.5429 153.961C46.9849 153.961 47.3533 154.103 47.6479 154.386C47.9539 154.669 48.1069 155.021 48.1069 155.44C48.1069 155.859 47.9539 156.211 47.6479 156.494C47.3533 156.777 46.9849 156.919 46.5429 156.919C46.1009 156.919 45.7269 156.777 45.4209 156.494C45.1263 156.211 44.9789 155.859 44.9789 155.44C44.9789 155.021 45.1263 154.669 45.4209 154.386C45.7269 154.103 46.1009 153.961 46.5429 153.961ZM47.8179 167H45.2509V158.313H47.8179V167ZM54.617 160.37C54.2997 160.37 53.9993 160.432 53.716 160.557C53.444 160.682 53.1267 160.897 52.764 161.203V167H50.18V158.517L52.696 158.194V159.86C53.1607 159.248 53.631 158.806 54.107 158.534C54.5943 158.251 55.1327 158.109 55.722 158.109C56.6173 158.109 57.3257 158.409 57.847 159.01C58.3797 159.611 58.646 160.427 58.646 161.458V167H56.079V161.985C56.079 161.475 55.9487 161.078 55.688 160.795C55.4387 160.512 55.0817 160.37 54.617 160.37ZM69.3054 158.279V165.742C69.3054 167.17 68.8747 168.286 68.0134 169.091C67.1521 169.907 65.9677 170.315 64.4604 170.315C63.8484 170.315 63.2647 170.253 62.7094 170.128C62.1541 170.003 61.5874 169.805 61.0094 169.533L60.6014 167.17L60.6354 167.153C61.3494 167.527 61.9841 167.793 62.5394 167.952C63.0947 168.111 63.6671 168.19 64.2564 168.19C65.0384 168.19 65.6504 167.992 66.0924 167.595C66.5344 167.198 66.7554 166.637 66.7554 165.912V165.368C66.3247 165.776 65.8827 166.076 65.4294 166.269C64.9761 166.45 64.4831 166.541 63.9504 166.541C62.8737 166.541 61.9841 166.173 61.2814 165.436C60.5787 164.688 60.2274 163.736 60.2274 162.58C60.2274 161.277 60.6751 160.217 61.5704 159.401C62.4771 158.585 63.6161 158.177 64.9874 158.177C65.3954 158.177 65.7977 158.217 66.1944 158.296C66.6024 158.364 67.0274 158.477 67.4694 158.636L69.1014 158.279H69.3054ZM65.1234 160.268C64.4321 160.268 63.8597 160.478 63.4064 160.897C62.9531 161.316 62.7264 161.855 62.7264 162.512C62.7264 163.135 62.9191 163.64 63.3044 164.025C63.6897 164.399 64.1884 164.586 64.8004 164.586C65.1291 164.586 65.4464 164.535 65.7524 164.433C66.0697 164.331 66.4041 164.167 66.7554 163.94V160.557C66.4607 160.455 66.1831 160.381 65.9224 160.336C65.6617 160.291 65.3954 160.268 65.1234 160.268ZM79.1402 159.435C80.4662 159.435 81.5032 159.764 82.2512 160.421C83.0105 161.078 83.3902 161.991 83.3902 163.158C83.3902 164.359 82.9595 165.334 82.0982 166.082C81.2482 166.83 80.1262 167.204 78.7322 167.204C78.1088 167.204 77.5082 167.142 76.9302 167.017C76.3635 166.904 75.8365 166.728 75.3492 166.49L75.0942 164.093L75.1282 164.076C75.7855 164.393 76.3862 164.626 76.9302 164.773C77.4855 164.92 78.0182 164.994 78.5282 164.994C79.1855 164.994 79.7125 164.83 80.1092 164.501C80.5172 164.161 80.7212 163.719 80.7212 163.175C80.7212 162.608 80.5172 162.172 80.1092 161.866C79.7012 161.56 79.1232 161.407 78.3752 161.407C77.9785 161.407 77.5535 161.447 77.1002 161.526C76.6468 161.605 76.1595 161.73 75.6382 161.9L75.4172 161.781L75.8592 155.1H82.8292V157.395H77.8482L77.6782 159.588C77.8708 159.543 78.0918 159.509 78.3412 159.486C78.6018 159.452 78.8682 159.435 79.1402 159.435Z" fill="currentColor"/>
</svg>
