<svg width="420" height="48" viewBox="0 0 420 48" fill="none" xmlns="http://www.w3.org/2000/svg">
<path d="M94.7998 5.10704H122.13V10.5118H100.77V21.2395H115.42V26.6442H100.77V43.5404H94.7998V5.10704Z" fill="#0F2C15"/>
<path d="M118.062 29.8761C118.062 21.717 124.266 15.3568 132.581 15.3568C140.897 15.3568 147.101 21.717 147.101 29.8761C147.101 38.0352 140.893 44.3954 132.581 44.3954C124.269 44.3954 118.062 38.0352 118.062 29.8761ZM132.581 38.9946C137.735 38.9946 141.461 35.017 141.461 29.8761C141.461 24.7352 137.731 20.7576 132.581 20.7576C127.432 20.7576 123.701 24.7352 123.701 29.8761C123.701 35.017 127.432 38.9946 132.581 38.9946Z" fill="#0F2C15"/>
<path d="M156.153 16.2098V31.7711C156.153 36.3444 158.63 38.9895 162.816 38.9895C167.002 38.9895 170.503 36.3444 170.503 31.7711V16.2098H176.139V43.8202H170.475V40.3397C169.566 41.7493 166.975 44.3943 161.934 44.3943C154.475 44.3943 150.517 39.6784 150.517 32.9748V16.2098H156.153Z" fill="#0F2C15"/>
<path d="M181.263 43.5413V15.931H187.115V19.7005C188.701 16.6794 191.376 15.3568 194.464 15.3568C196.669 15.3568 198.345 16.0458 198.345 16.0458L197.726 21.2804C197.402 21.1656 196.139 20.6469 194.286 20.6469C191.17 20.6469 187.115 22.2584 187.115 28.4988V43.5413H181.263Z" fill="#0F2C15"/>
<path d="M211.162 5.10704H217.155V24.2107L234.909 5.10704H242.642L228.083 20.7859L243.609 43.5404H236.3L223.855 24.803L217.147 31.9644V43.5404H211.154V5.10704H211.162Z" fill="#0F2C15"/>
<path d="M247.027 43.5404V21.3344H253.005V43.5404H247.027Z" fill="#0F2C15"/>
<path d="M255.566 21.2403V16.4509H260.605V7.66904H266.194V16.4509H275.024V21.2403H266.25V34.9293C266.25 37.8383 267.96 39.2908 270.794 39.2908C272.126 39.2908 273.951 38.9218 275.311 38.3486L276.064 43.1969C274.673 43.9114 272.213 44.3943 269.985 44.3943C264.165 44.3943 260.517 41.1712 260.517 35.6124V21.2403H255.566Z" fill="#0F2C15"/>
<path d="M276.919 29.8481C276.919 21.689 283.423 15.3568 291.73 15.3568C297.146 15.3568 301.674 18.2311 304.249 22.9923L299.867 26.0104C298.148 22.7884 295.055 20.7536 291.616 20.7536C286.315 20.7536 282.646 24.7312 282.646 29.8441C282.646 34.9571 286.401 38.9906 291.501 38.9906C295.083 38.9906 298.061 37.0758 299.954 33.7658L304.222 36.8159C301.701 41.4052 297.059 44.3954 291.501 44.3954C283.163 44.3954 276.919 37.9792 276.919 29.8481Z" fill="#0F2C15"/>
<path d="M308.521 43.5368V3.39925H314.238V19.6199C315.156 18.2227 317.769 15.601 322.712 15.601C330.149 15.601 334.143 20.2753 334.143 26.9198V43.5408H328.457V28.1168C328.457 23.5838 325.958 20.9621 321.822 20.9621C317.686 20.9621 314.211 23.5838 314.211 28.1168V43.5408H308.525L308.521 43.5368Z" fill="#0F2C15"/>
<path d="M352.119 15.3568C359.859 15.3568 364.889 21.3972 364.889 28.8607C364.889 29.7322 364.832 30.6317 364.669 31.5311H344.075C344.322 35.7126 347.724 38.9946 352.313 38.9946C355.631 38.9946 358.284 37.5155 360.274 34.2335L364.311 37.3116C361.853 41.9569 357.013 44.3954 352.317 44.3954C344.3 44.3954 338.413 38.1831 338.413 29.9041C338.413 21.6251 344.079 15.3568 352.123 15.3568H352.119ZM359.334 27.2337C359.003 23.3121 355.879 20.5537 352.066 20.5537C348.002 20.5537 344.908 23.3121 344.216 27.2337H359.334Z" fill="#0F2C15"/>
<path d="M369.812 43.5374V15.9309H375.306V19.4109C376.188 18.0015 378.701 15.3568 383.453 15.3568C390.745 15.3568 394.581 20.0721 394.581 26.7747V43.5413H389.114V27.9823C389.114 23.4095 386.711 20.7649 382.598 20.7649C378.484 20.7649 375.279 23.4095 375.279 27.9823V43.5413H369.812V43.5374Z" fill="#0F2C15"/>
<path d="M401.898 34.4893C403.406 37.2197 405.975 39.1066 409.386 39.1066C412.263 39.1066 414.413 37.9153 414.413 36.0284C414.413 33.9657 412.763 33.326 408.825 32.3986C403.071 31.0634 398.964 29.1765 398.964 23.6599C398.964 18.6069 403.406 15.3568 408.883 15.3568C413.882 15.3568 417.709 18.0592 419.497 21.1054L415.782 24.4154C414.328 22.2647 412.04 20.6097 408.883 20.6097C406.229 20.6097 404.441 21.773 404.441 23.5719C404.441 25.6906 406.425 26.2743 410.363 27.2617C416.201 28.7408 420.001 30.7156 420.001 36.0324C420.001 41.3492 415.086 44.3954 409.386 44.3954C404.164 44.3954 399.86 41.8969 397.795 37.9473L401.902 34.4933L401.898 34.4893Z" fill="#0F2C15"/>
<path d="M247.026 15.3568H241.047V21.3354H247.026V15.3568Z" fill="#0F2C15"/>
<path d="M36.4426 29.5735H18.2213V47.7948H36.4426V29.5735Z" fill="#0EB747"/>
<path d="M36.4426 0H18.2213L0 29.5735H18.2213L36.4426 0Z" fill="#0EB747"/>
<path d="M54.6651 29.5735L72.9608 0H54.7396L36.4438 29.5735L54.5469 47.7947H72.7682L54.6651 29.5735Z" fill="#0EB747"/>
</svg>
